<svg id="visual" viewBox="0 0 960 540" width="960" height="540" xmlns="http://www.w3.org/2000/svg" xmlns:xlink="http://www.w3.org/1999/xlink" version="1.1"><g><g transform="translate(18 158)"><path d="M75 -24.5C83.9 3 68.7 38.3 41.4 58.4C14.2 78.5 -25.1 83.6 -48.1 66.7C-71 49.9 -77.7 11.3 -67 -18.8C-56.2 -48.9 -28.1 -70.4 2.5 -71.2C33.1 -72 66.1 -52.1 75 -24.5Z" stroke="#F7760E" fill="none" stroke-width="20"></path></g><g transform="translate(850 190)"><path d="M40.4 -12.3C46.5 5.5 41.4 27.8 27.1 38.5C12.7 49.2 -10.9 48.4 -24.7 37.5C-38.6 26.6 -42.6 5.7 -36.9 -11.6C-31.1 -28.9 -15.5 -42.7 0.8 -43C17.2 -43.3 34.4 -30 40.4 -12.3Z" stroke="#F7760E" fill="none" stroke-width="20"></path></g><g transform="translate(216 474)"><path d="M59.6 -20.5C67.8 6.1 58.7 37.1 36.9 53.6C15.2 70 -19.1 71.8 -40.4 56.2C-61.7 40.6 -69.9 7.6 -61 -19.9C-52.1 -47.3 -26 -69.3 -0.2 -69.2C25.7 -69.2 51.3 -47.1 59.6 -20.5Z" stroke="#F7760E" fill="none" stroke-width="20"></path></g><g transform="translate(366 120)"><path d="M34.1 -10.2C39.2 4.9 35.2 23.8 22.8 33.3C10.4 42.7 -10.3 42.7 -23.3 33C-36.4 23.3 -41.8 4 -36.6 -11C-31.4 -26.1 -15.7 -36.8 -0.6 -36.6C14.4 -36.4 28.9 -25.2 34.1 -10.2Z" stroke="#F7760E" fill="none" stroke-width="20"></path></g><g transform="translate(935 529)"><path d="M70.1 -22.6C78.3 2.2 63.5 34.6 38.1 53.1C12.8 71.7 -23 76.3 -44.3 60.9C-65.6 45.4 -72.4 9.9 -62.6 -17.3C-52.8 -44.4 -26.4 -63 2.3 -63.8C31 -64.5 62 -47.4 70.1 -22.6Z" stroke="#F7760E" fill="none" stroke-width="20"></path></g><g transform="translate(504 444)"><path d="M33.9 -11.9C37.8 1 30.6 16.6 19.5 24.1C8.4 31.5 -6.7 30.7 -18 22.9C-29.3 15.1 -36.9 0.3 -33.2 -12.1C-29.6 -24.6 -14.8 -34.8 0.1 -34.8C15 -34.8 30 -24.7 33.9 -11.9Z" stroke="#F7760E" fill="none" stroke-width="20"></path></g><g transform="translate(633 25)"><path d="M65.6 -24.4C74.1 4.9 62.6 37.6 37.9 56.6C13.2 75.6 -24.7 80.8 -47.4 64.5C-70.1 48.2 -77.6 10.3 -67.1 -21.6C-56.7 -53.5 -28.3 -79.3 0.1 -79.3C28.5 -79.4 57.1 -53.6 65.6 -24.4Z" stroke="#F7760E" fill="none" stroke-width="20"></path></g><g transform="translate(734 407)"><path d="M63.7 -19C71.9 4.5 60.6 36.1 38.6 51.8C16.6 67.5 -16 67.2 -37.3 51.7C-58.6 36.1 -68.5 5.3 -60.4 -18.1C-52.3 -41.6 -26.2 -57.7 0.8 -57.9C27.8 -58.2 55.5 -42.6 63.7 -19Z" stroke="#F7760E" fill="none" stroke-width="20"></path></g></g></svg>