<svg id="visual" viewBox="0 0 900 600" width="900" height="600" xmlns="http://www.w3.org/2000/svg" xmlns:xlink="http://www.w3.org/1999/xlink" version="1.1"><g transform="translate(428.61830295286825 283.00664962124677)"><path d="M94.9 -147.2C114.2 -135.4 114.9 -94.1 133.1 -59.3C151.3 -24.5 187 3.8 187.9 30C188.8 56.3 154.8 80.5 127.2 107.3C99.5 134.1 78.1 163.5 48.9 176.6C19.8 189.7 -17 186.5 -50.7 175.4C-84.5 164.3 -115.2 145.3 -124.8 117.5C-134.4 89.6 -122.9 52.8 -127.1 18.7C-131.2 -15.4 -151.1 -46.7 -143.4 -66.2C-135.6 -85.7 -100.3 -93.3 -71.8 -101C-43.3 -108.6 -21.6 -116.3 8.1 -128.9C37.8 -141.6 75.7 -159.1 94.9 -147.2" fill="#53add6"></path></g></svg>