<svg id="visual" viewBox="0 0 900 600" width="900" height="600" xmlns="http://www.w3.org/2000/svg" xmlns:xlink="http://www.w3.org/1999/xlink" version="1.1"><g transform="translate(436.3339368488779 280.3044762648937)"><path d="M86.3 -128.9C113.9 -116.6 139.7 -96.1 159.4 -68.3C179 -40.5 192.4 -5.5 189 28.1C185.6 61.6 165.4 93.7 141.6 124.7C117.9 155.8 90.6 185.8 61.2 182.8C31.7 179.7 0.1 143.6 -24.6 119.9C-49.4 96.2 -67.2 84.9 -88.2 70.8C-109.1 56.7 -133.3 39.6 -147.9 14.2C-162.5 -11.2 -167.7 -45.1 -155 -69.9C-142.3 -94.7 -111.7 -110.4 -82.9 -122.1C-54.1 -133.8 -27 -141.4 1.2 -143.2C29.4 -145 58.7 -141.1 86.3 -128.9" fill="#53add6"></path></g></svg>