<svg id="visual" viewBox="0 0 960 540" width="960" height="540" xmlns="http://www.w3.org/2000/svg" xmlns:xlink="http://www.w3.org/1999/xlink" version="1.1"><g stroke-width="3" stroke-linejoin="bevel"><path d="M462.7 257.5L464.7 305.5L493.3 296.5Z" fill="#7fccda" stroke="#FFFFFF"></path><path d="M402.2 307.5L450.7 333.6L464.7 305.5Z" fill="#87d0cf" stroke="#FFFFFF"></path><path d="M464.7 305.5L496.3 334.6L493.3 296.5Z" fill="#8ed2ca" stroke="#FFFFFF"></path><path d="M450.7 333.6L496.3 334.6L464.7 305.5Z" fill="#7ec9df" stroke="#FFFFFF"></path><path d="M542.8 253.5L510.3 232.5L493.3 296.5Z" fill="#8ed2ca" stroke="#FFFFFF"></path><path d="M493.3 296.5L510.3 232.5L462.7 257.5Z" fill="#96d3c4" stroke="#FFFFFF"></path><path d="M447.7 200.4L404.2 255.5L462.7 257.5Z" fill="#7fccda" stroke="#FFFFFF"></path><path d="M462.7 257.5L402.2 307.5L464.7 305.5Z" fill="#8bbee8" stroke="#FFFFFF"></path><path d="M404.2 255.5L402.2 307.5L462.7 257.5Z" fill="#82ced5" stroke="#FFFFFF"></path><path d="M567.8 306.5L542.8 253.5L493.3 296.5Z" fill="#8ed2ca" stroke="#FFFFFF"></path><path d="M510.3 232.5L447.7 200.4L462.7 257.5Z" fill="#8bbee8" stroke="#FFFFFF"></path><path d="M560.8 188.4L511.3 195.4L510.3 232.5Z" fill="#9fd4bf" stroke="#FFFFFF"></path><path d="M510.3 232.5L511.3 195.4L447.7 200.4Z" fill="#8ed2ca" stroke="#FFFFFF"></path><path d="M554.8 338.6L567.8 306.5L493.3 296.5Z" fill="#7fccda" stroke="#FFFFFF"></path><path d="M504.3 402.7L554.8 338.6L496.3 334.6Z" fill="#80c6e3" stroke="#FFFFFF"></path><path d="M496.3 334.6L554.8 338.6L493.3 296.5Z" fill="#a8d5ba" stroke="#FFFFFF"></path><path d="M355.7 346.6L399.2 350.6L402.2 307.5Z" fill="#82ced5" stroke="#FFFFFF"></path><path d="M402.2 307.5L399.2 350.6L450.7 333.6Z" fill="#7fccda" stroke="#FFFFFF"></path><path d="M450.7 333.6L442.7 390.7L496.3 334.6Z" fill="#7ec9df" stroke="#FFFFFF"></path><path d="M345.7 247.5L363.7 286.5L404.2 255.5Z" fill="#8ed2ca" stroke="#FFFFFF"></path><path d="M404.2 255.5L363.7 286.5L402.2 307.5Z" fill="#8bbee8" stroke="#FFFFFF"></path><path d="M399.2 350.6L442.7 390.7L450.7 333.6Z" fill="#84c2e6" stroke="#FFFFFF"></path><path d="M398.2 156.3L390.2 192.4L447.7 200.4Z" fill="#7fccda" stroke="#FFFFFF"></path><path d="M447.7 200.4L390.2 192.4L404.2 255.5Z" fill="#84c2e6" stroke="#FFFFFF"></path><path d="M442.7 390.7L504.3 402.7L496.3 334.6Z" fill="#84c2e6" stroke="#FFFFFF"></path><path d="M542.8 253.5L560.8 188.4L510.3 232.5Z" fill="#a8d5ba" stroke="#FFFFFF"></path><path d="M511.3 195.4L441.7 150.3L447.7 200.4Z" fill="#80c6e3" stroke="#FFFFFF"></path><path d="M611.3 242.5L560.8 188.4L542.8 253.5Z" fill="#80c6e3" stroke="#FFFFFF"></path><path d="M390.2 192.4L345.7 247.5L404.2 255.5Z" fill="#7fccda" stroke="#FFFFFF"></path><path d="M363.7 286.5L355.7 346.6L402.2 307.5Z" fill="#80c6e3" stroke="#FFFFFF"></path><path d="M399.2 350.6L392.2 405.7L442.7 390.7Z" fill="#8bbee8" stroke="#FFFFFF"></path><path d="M306.2 282.5L355.7 346.6L363.7 286.5Z" fill="#9fd4bf" stroke="#FFFFFF"></path><path d="M600.3 336.6L605.3 302.5L567.8 306.5Z" fill="#82ced5" stroke="#FFFFFF"></path><path d="M567.8 306.5L611.3 242.5L542.8 253.5Z" fill="#7ec9df" stroke="#FFFFFF"></path><path d="M600.3 336.6L567.8 306.5L554.8 338.6Z" fill="#96d3c4" stroke="#FFFFFF"></path><path d="M517.3 135.3L441.7 150.3L511.3 195.4Z" fill="#82ced5" stroke="#FFFFFF"></path><path d="M544.8 405.7L600.3 336.6L554.8 338.6Z" fill="#96d3c4" stroke="#FFFFFF"></path><path d="M605.3 302.5L611.3 242.5L567.8 306.5Z" fill="#a8d5ba" stroke="#FFFFFF"></path><path d="M504.3 402.7L544.8 405.7L554.8 338.6Z" fill="#a8d5ba" stroke="#FFFFFF"></path><path d="M441.7 150.3L398.2 156.3L447.7 200.4Z" fill="#9fd4bf" stroke="#FFFFFF"></path><path d="M390.2 192.4L344.7 187.4L345.7 247.5Z" fill="#7ec9df" stroke="#FFFFFF"></path><path d="M345.7 387.7L392.2 405.7L399.2 350.6Z" fill="#7ec9df" stroke="#FFFFFF"></path><path d="M448.7 436.8L506.3 427.8L504.3 402.7Z" fill="#84c2e6" stroke="#FFFFFF"></path><path d="M504.3 402.7L506.3 427.8L544.8 405.7Z" fill="#96d3c4" stroke="#FFFFFF"></path><path d="M448.7 436.8L504.3 402.7L442.7 390.7Z" fill="#8bbee8" stroke="#FFFFFF"></path><path d="M562.8 148.3L517.3 135.3L560.8 188.4Z" fill="#8bbee8" stroke="#FFFFFF"></path><path d="M560.8 188.4L517.3 135.3L511.3 195.4Z" fill="#96d3c4" stroke="#FFFFFF"></path><path d="M360.7 103.2L356.7 147.3L398.2 156.3Z" fill="#a8d5ba" stroke="#FFFFFF"></path><path d="M392.2 405.7L448.7 436.8L442.7 390.7Z" fill="#80c6e3" stroke="#FFFFFF"></path><path d="M356.7 147.3L344.7 187.4L390.2 192.4Z" fill="#84c2e6" stroke="#FFFFFF"></path><path d="M610.3 144.3L562.8 148.3L560.8 188.4Z" fill="#87d0cf" stroke="#FFFFFF"></path><path d="M291.2 342.6L345.7 387.7L355.7 346.6Z" fill="#7fccda" stroke="#FFFFFF"></path><path d="M355.7 346.6L345.7 387.7L399.2 350.6Z" fill="#9fd4bf" stroke="#FFFFFF"></path><path d="M392.2 405.7L400.2 443.8L448.7 436.8Z" fill="#87d0cf" stroke="#FFFFFF"></path><path d="M306.2 282.5L363.7 286.5L345.7 247.5Z" fill="#8bbee8" stroke="#FFFFFF"></path><path d="M289.2 233.5L306.2 282.5L345.7 247.5Z" fill="#a8d5ba" stroke="#FFFFFF"></path><path d="M652.8 249.5L618.3 197.4L611.3 242.5Z" fill="#80c6e3" stroke="#FFFFFF"></path><path d="M611.3 242.5L618.3 197.4L560.8 188.4Z" fill="#82ced5" stroke="#FFFFFF"></path><path d="M360.7 103.2L398.2 156.3L390.2 85.2Z" fill="#82ced5" stroke="#FFFFFF"></path><path d="M398.2 156.3L356.7 147.3L390.2 192.4Z" fill="#82ced5" stroke="#FFFFFF"></path><path d="M344.7 187.4L289.2 233.5L345.7 247.5Z" fill="#9fd4bf" stroke="#FFFFFF"></path><path d="M347.7 435.8L400.2 443.8L392.2 405.7Z" fill="#80c6e3" stroke="#FFFFFF"></path><path d="M506.3 427.8L559.8 436.8L544.8 405.7Z" fill="#7ec9df" stroke="#FFFFFF"></path><path d="M544.8 405.7L618.3 404.7L600.3 336.6Z" fill="#8bbee8" stroke="#FFFFFF"></path><path d="M543.8 499.9L559.8 436.8L506.3 427.8Z" fill="#8ed2ca" stroke="#FFFFFF"></path><path d="M496.3 488.9L506.3 427.8L448.7 436.8Z" fill="#9fd4bf" stroke="#FFFFFF"></path><path d="M649.8 337.6L650.8 306.5L605.3 302.5Z" fill="#8ed2ca" stroke="#FFFFFF"></path><path d="M605.3 302.5L652.8 249.5L611.3 242.5Z" fill="#87d0cf" stroke="#FFFFFF"></path><path d="M649.8 337.6L605.3 302.5L600.3 336.6Z" fill="#82ced5" stroke="#FFFFFF"></path><path d="M650.8 306.5L652.8 249.5L605.3 302.5Z" fill="#96d3c4" stroke="#FFFFFF"></path><path d="M618.3 404.7L649.8 337.6L600.3 336.6Z" fill="#9fd4bf" stroke="#FFFFFF"></path><path d="M698.4 248.5L662.8 201.4L652.8 249.5Z" fill="#8bbee8" stroke="#FFFFFF"></path><path d="M492.3 95.2L466.7 95.2L517.3 135.3Z" fill="#96d3c4" stroke="#FFFFFF"></path><path d="M517.3 135.3L466.7 95.2L441.7 150.3Z" fill="#84c2e6" stroke="#FFFFFF"></path><path d="M546.8 104.2L492.3 95.2L517.3 135.3Z" fill="#7ec9df" stroke="#FFFFFF"></path><path d="M290.2 195.4L289.2 233.5L344.7 187.4Z" fill="#82ced5" stroke="#FFFFFF"></path><path d="M559.8 436.8L618.3 404.7L544.8 405.7Z" fill="#82ced5" stroke="#FFFFFF"></path><path d="M306.2 282.5L291.2 342.6L355.7 346.6Z" fill="#87d0cf" stroke="#FFFFFF"></path><path d="M345.7 387.7L347.7 435.8L392.2 405.7Z" fill="#7fccda" stroke="#FFFFFF"></path><path d="M258.6 295.5L291.2 342.6L306.2 282.5Z" fill="#9fd4bf" stroke="#FFFFFF"></path><path d="M594.3 104.2L546.8 104.2L562.8 148.3Z" fill="#84c2e6" stroke="#FFFFFF"></path><path d="M562.8 148.3L546.8 104.2L517.3 135.3Z" fill="#8ed2ca" stroke="#FFFFFF"></path><path d="M656.8 139.3L610.3 144.3L618.3 197.4Z" fill="#8ed2ca" stroke="#FFFFFF"></path><path d="M618.3 197.4L610.3 144.3L560.8 188.4Z" fill="#8bbee8" stroke="#FFFFFF"></path><path d="M302.2 399.7L347.7 435.8L345.7 387.7Z" fill="#9fd4bf" stroke="#FFFFFF"></path><path d="M310.2 157.3L290.2 195.4L344.7 187.4Z" fill="#84c2e6" stroke="#FFFFFF"></path><path d="M356.7 147.3L310.2 157.3L344.7 187.4Z" fill="#80c6e3" stroke="#FFFFFF"></path><path d="M314.2 97.2L310.2 157.3L356.7 147.3Z" fill="#9fd4bf" stroke="#FFFFFF"></path><path d="M652.8 249.5L662.8 201.4L618.3 197.4Z" fill="#8ed2ca" stroke="#FFFFFF"></path><path d="M698.4 248.5L652.8 249.5L650.8 306.5Z" fill="#7ec9df" stroke="#FFFFFF"></path><path d="M291.2 342.6L302.2 399.7L345.7 387.7Z" fill="#80c6e3" stroke="#FFFFFF"></path><path d="M441.7 497.9L448.7 436.8L400.2 443.8Z" fill="#84c2e6" stroke="#FFFFFF"></path><path d="M441.7 497.9L496.3 488.9L448.7 436.8Z" fill="#9fd4bf" stroke="#FFFFFF"></path><path d="M559.8 436.8L609.3 446.8L618.3 404.7Z" fill="#87d0cf" stroke="#FFFFFF"></path><path d="M390.2 85.2L398.2 156.3L441.7 150.3Z" fill="#7fccda" stroke="#FFFFFF"></path><path d="M466.7 95.2L390.2 85.2L441.7 150.3Z" fill="#8ed2ca" stroke="#FFFFFF"></path><path d="M445.7 54.1L390.2 85.2L466.7 95.2Z" fill="#96d3c4" stroke="#FFFFFF"></path><path d="M253.6 243.5L306.2 282.5L289.2 233.5Z" fill="#96d3c4" stroke="#FFFFFF"></path><path d="M253.6 243.5L258.6 295.5L306.2 282.5Z" fill="#7fccda" stroke="#FFFFFF"></path><path d="M291.2 342.6L265.6 403.7L302.2 399.7Z" fill="#96d3c4" stroke="#FFFFFF"></path><path d="M610.3 144.3L594.3 104.2L562.8 148.3Z" fill="#9fd4bf" stroke="#FFFFFF"></path><path d="M495.3 48.1L466.7 95.2L492.3 95.2Z" fill="#87d0cf" stroke="#FFFFFF"></path><path d="M495.3 48.1L445.7 54.1L466.7 95.2Z" fill="#96d3c4" stroke="#FFFFFF"></path><path d="M648.8 103.2L594.3 104.2L610.3 144.3Z" fill="#a8d5ba" stroke="#FFFFFF"></path><path d="M597.3 492.9L609.3 446.8L559.8 436.8Z" fill="#8bbee8" stroke="#FFFFFF"></path><path d="M618.3 404.7L669.8 399.7L649.8 337.6Z" fill="#96d3c4" stroke="#FFFFFF"></path><path d="M357.7 493.9L396.2 484.9L347.7 435.8Z" fill="#87d0cf" stroke="#FFFFFF"></path><path d="M347.7 435.8L396.2 484.9L400.2 443.8Z" fill="#8bbee8" stroke="#FFFFFF"></path><path d="M396.2 484.9L441.7 497.9L400.2 443.8Z" fill="#82ced5" stroke="#FFFFFF"></path><path d="M253.6 204.4L289.2 233.5L290.2 195.4Z" fill="#a8d5ba" stroke="#FFFFFF"></path><path d="M253.6 204.4L253.6 243.5L289.2 233.5Z" fill="#84c2e6" stroke="#FFFFFF"></path><path d="M214.1 337.6L255.6 329.6L258.6 295.5Z" fill="#9fd4bf" stroke="#FFFFFF"></path><path d="M258.6 295.5L255.6 329.6L291.2 342.6Z" fill="#7fccda" stroke="#FFFFFF"></path><path d="M265.6 403.7L309.2 435.8L302.2 399.7Z" fill="#a8d5ba" stroke="#FFFFFF"></path><path d="M302.2 399.7L309.2 435.8L347.7 435.8Z" fill="#84c2e6" stroke="#FFFFFF"></path><path d="M714.4 304.5L650.8 306.5L709.4 335.6Z" fill="#80c6e3" stroke="#FFFFFF"></path><path d="M714.4 304.5L698.4 248.5L650.8 306.5Z" fill="#82ced5" stroke="#FFFFFF"></path><path d="M662.8 201.4L656.8 139.3L618.3 197.4Z" fill="#87d0cf" stroke="#FFFFFF"></path><path d="M495.3 48.1L492.3 95.2L547.8 47.1Z" fill="#7ec9df" stroke="#FFFFFF"></path><path d="M510.3 540L543.8 499.9L496.3 488.9Z" fill="#87d0cf" stroke="#FFFFFF"></path><path d="M496.3 488.9L543.8 499.9L506.3 427.8Z" fill="#82ced5" stroke="#FFFFFF"></path><path d="M642.8 454.8L618.3 404.7L609.3 446.8Z" fill="#8ed2ca" stroke="#FFFFFF"></path><path d="M642.8 454.8L669.8 399.7L618.3 404.7Z" fill="#96d3c4" stroke="#FFFFFF"></path><path d="M251.6 137.3L290.2 195.4L310.2 157.3Z" fill="#84c2e6" stroke="#FFFFFF"></path><path d="M251.6 137.3L253.6 204.4L290.2 195.4Z" fill="#9fd4bf" stroke="#FFFFFF"></path><path d="M699.4 155.3L656.8 139.3L662.8 201.4Z" fill="#7fccda" stroke="#FFFFFF"></path><path d="M547.8 47.1L546.8 104.2L594.3 104.2Z" fill="#7fccda" stroke="#FFFFFF"></path><path d="M547.8 47.1L492.3 95.2L546.8 104.2Z" fill="#87d0cf" stroke="#FFFFFF"></path><path d="M255.6 329.6L265.6 403.7L291.2 342.6Z" fill="#80c6e3" stroke="#FFFFFF"></path><path d="M305.2 491.9L357.7 493.9L347.7 435.8Z" fill="#9fd4bf" stroke="#FFFFFF"></path><path d="M395.2 540L447.7 540L441.7 497.9Z" fill="#82ced5" stroke="#FFFFFF"></path><path d="M305.2 491.9L347.7 435.8L309.2 435.8Z" fill="#82ced5" stroke="#FFFFFF"></path><path d="M709.4 335.6L650.8 306.5L649.8 337.6Z" fill="#82ced5" stroke="#FFFFFF"></path><path d="M696.4 390.7L709.4 335.6L649.8 337.6Z" fill="#7fccda" stroke="#FFFFFF"></path><path d="M347.7 60.1L314.2 97.2L360.7 103.2Z" fill="#80c6e3" stroke="#FFFFFF"></path><path d="M360.7 103.2L314.2 97.2L356.7 147.3Z" fill="#82ced5" stroke="#FFFFFF"></path><path d="M347.7 60.1L360.7 103.2L390.2 85.2Z" fill="#87d0cf" stroke="#FFFFFF"></path><path d="M597.3 492.9L642.8 454.8L609.3 446.8Z" fill="#84c2e6" stroke="#FFFFFF"></path><path d="M669.8 399.7L696.4 390.7L649.8 337.6Z" fill="#8bbee8" stroke="#FFFFFF"></path><path d="M543.8 499.9L597.3 492.9L559.8 436.8Z" fill="#9fd4bf" stroke="#FFFFFF"></path><path d="M606.3 56.1L547.8 47.1L594.3 104.2Z" fill="#84c2e6" stroke="#FFFFFF"></path><path d="M709.4 430.8L696.4 390.7L669.8 399.7Z" fill="#a8d5ba" stroke="#FFFFFF"></path><path d="M700.4 84.2L648.8 103.2L656.8 139.3Z" fill="#8ed2ca" stroke="#FFFFFF"></path><path d="M656.8 139.3L648.8 103.2L610.3 144.3Z" fill="#8ed2ca" stroke="#FFFFFF"></path><path d="M461.7 0L411.2 38.1L445.7 54.1Z" fill="#7ec9df" stroke="#FFFFFF"></path><path d="M445.7 54.1L411.2 38.1L390.2 85.2Z" fill="#a8d5ba" stroke="#FFFFFF"></path><path d="M461.7 0L445.7 54.1L495.3 48.1Z" fill="#84c2e6" stroke="#FFFFFF"></path><path d="M746.9 256.5L708.4 190.4L698.4 248.5Z" fill="#87d0cf" stroke="#FFFFFF"></path><path d="M698.4 248.5L708.4 190.4L662.8 201.4Z" fill="#82ced5" stroke="#FFFFFF"></path><path d="M411.2 38.1L347.7 60.1L390.2 85.2Z" fill="#8ed2ca" stroke="#FFFFFF"></path><path d="M708.4 190.4L699.4 155.3L662.8 201.4Z" fill="#87d0cf" stroke="#FFFFFF"></path><path d="M395.2 540L441.7 497.9L396.2 484.9Z" fill="#84c2e6" stroke="#FFFFFF"></path><path d="M441.7 497.9L447.7 540L496.3 488.9Z" fill="#9fd4bf" stroke="#FFFFFF"></path><path d="M543.8 499.9L553.8 540L597.3 492.9Z" fill="#7fccda" stroke="#FFFFFF"></path><path d="M447.7 540L510.3 540L496.3 488.9Z" fill="#82ced5" stroke="#FFFFFF"></path><path d="M559.8 0L606.3 56.1L618.3 0Z" fill="#8ed2ca" stroke="#FFFFFF"></path><path d="M648.8 103.2L606.3 56.1L594.3 104.2Z" fill="#9fd4bf" stroke="#FFFFFF"></path><path d="M314.2 97.2L251.6 137.3L310.2 157.3Z" fill="#96d3c4" stroke="#FFFFFF"></path><path d="M207.1 248.5L258.6 295.5L253.6 243.5Z" fill="#8ed2ca" stroke="#FFFFFF"></path><path d="M257.6 96.2L251.6 137.3L314.2 97.2Z" fill="#8bbee8" stroke="#FFFFFF"></path><path d="M189.1 293.5L214.1 337.6L258.6 295.5Z" fill="#7ec9df" stroke="#FFFFFF"></path><path d="M255.6 329.6L214.1 337.6L265.6 403.7Z" fill="#7fccda" stroke="#FFFFFF"></path><path d="M207.1 248.5L253.6 243.5L253.6 204.4Z" fill="#7ec9df" stroke="#FFFFFF"></path><path d="M210.1 191.4L207.1 248.5L253.6 204.4Z" fill="#a8d5ba" stroke="#FFFFFF"></path><path d="M242.6 449.8L305.2 491.9L309.2 435.8Z" fill="#87d0cf" stroke="#FFFFFF"></path><path d="M357.7 493.9L395.2 540L396.2 484.9Z" fill="#7ec9df" stroke="#FFFFFF"></path><path d="M242.6 449.8L309.2 435.8L265.6 403.7Z" fill="#8bbee8" stroke="#FFFFFF"></path><path d="M344.7 540L395.2 540L357.7 493.9Z" fill="#8ed2ca" stroke="#FFFFFF"></path><path d="M510.3 540L553.8 540L543.8 499.9Z" fill="#8bbee8" stroke="#FFFFFF"></path><path d="M718.4 478.9L709.4 430.8L642.8 454.8Z" fill="#96d3c4" stroke="#FFFFFF"></path><path d="M760.9 297.5L746.9 256.5L714.4 304.5Z" fill="#7fccda" stroke="#FFFFFF"></path><path d="M714.4 304.5L746.9 256.5L698.4 248.5Z" fill="#9fd4bf" stroke="#FFFFFF"></path><path d="M746.9 155.3L700.4 84.2L699.4 155.3Z" fill="#80c6e3" stroke="#FFFFFF"></path><path d="M745.9 354.6L714.4 304.5L709.4 335.6Z" fill="#8bbee8" stroke="#FFFFFF"></path><path d="M251.6 137.3L210.1 191.4L253.6 204.4Z" fill="#7fccda" stroke="#FFFFFF"></path><path d="M642.8 454.8L709.4 430.8L669.8 399.7Z" fill="#87d0cf" stroke="#FFFFFF"></path><path d="M696.4 390.7L745.9 354.6L709.4 335.6Z" fill="#7fccda" stroke="#FFFFFF"></path><path d="M659.8 496.9L642.8 454.8L597.3 492.9Z" fill="#a8d5ba" stroke="#FFFFFF"></path><path d="M506.3 0L461.7 0L495.3 48.1Z" fill="#84c2e6" stroke="#FFFFFF"></path><path d="M306.2 0L295.2 61.1L347.7 60.1Z" fill="#84c2e6" stroke="#FFFFFF"></path><path d="M506.3 0L495.3 48.1L547.8 47.1Z" fill="#8ed2ca" stroke="#FFFFFF"></path><path d="M359.7 0L347.7 60.1L411.2 38.1Z" fill="#84c2e6" stroke="#FFFFFF"></path><path d="M347.7 60.1L295.2 61.1L314.2 97.2Z" fill="#80c6e3" stroke="#FFFFFF"></path><path d="M251.6 137.3L202.1 147.3L210.1 191.4Z" fill="#7ec9df" stroke="#FFFFFF"></path><path d="M756.9 403.7L745.9 354.6L696.4 390.7Z" fill="#87d0cf" stroke="#FFFFFF"></path><path d="M559.8 0L506.3 0L547.8 47.1Z" fill="#8bbee8" stroke="#FFFFFF"></path><path d="M295.2 61.1L257.6 96.2L314.2 97.2Z" fill="#84c2e6" stroke="#FFFFFF"></path><path d="M207.1 248.5L189.1 293.5L258.6 295.5Z" fill="#96d3c4" stroke="#FFFFFF"></path><path d="M161.6 283.5L189.1 293.5L207.1 248.5Z" fill="#8bbee8" stroke="#FFFFFF"></path><path d="M191.1 380.7L265.6 403.7L214.1 337.6Z" fill="#8ed2ca" stroke="#FFFFFF"></path><path d="M191.1 380.7L242.6 449.8L265.6 403.7Z" fill="#9fd4bf" stroke="#FFFFFF"></path><path d="M647.8 540L659.8 496.9L597.3 492.9Z" fill="#96d3c4" stroke="#FFFFFF"></path><path d="M553.8 540L594.3 540L597.3 492.9Z" fill="#84c2e6" stroke="#FFFFFF"></path><path d="M461.7 0L416.2 0L411.2 38.1Z" fill="#8ed2ca" stroke="#FFFFFF"></path><path d="M745.9 354.6L760.9 297.5L714.4 304.5Z" fill="#8bbee8" stroke="#FFFFFF"></path><path d="M300.2 540L344.7 540L305.2 491.9Z" fill="#9fd4bf" stroke="#FFFFFF"></path><path d="M305.2 491.9L344.7 540L357.7 493.9Z" fill="#82ced5" stroke="#FFFFFF"></path><path d="M606.3 56.1L559.8 0L547.8 47.1Z" fill="#8bbee8" stroke="#FFFFFF"></path><path d="M664.8 56.1L606.3 56.1L648.8 103.2Z" fill="#87d0cf" stroke="#FFFFFF"></path><path d="M700.4 84.2L656.8 139.3L699.4 155.3Z" fill="#8bbee8" stroke="#FFFFFF"></path><path d="M700.4 84.2L664.8 56.1L648.8 103.2Z" fill="#a8d5ba" stroke="#FFFFFF"></path><path d="M137.6 346.6L191.1 380.7L214.1 337.6Z" fill="#82ced5" stroke="#FFFFFF"></path><path d="M746.9 155.3L708.4 190.4L767.9 188.4Z" fill="#82ced5" stroke="#FFFFFF"></path><path d="M746.9 155.3L699.4 155.3L708.4 190.4Z" fill="#8ed2ca" stroke="#FFFFFF"></path><path d="M767.9 188.4L708.4 190.4L746.9 256.5Z" fill="#87d0cf" stroke="#FFFFFF"></path><path d="M188.1 110.2L202.1 147.3L251.6 137.3Z" fill="#82ced5" stroke="#FFFFFF"></path><path d="M156.6 234.5L161.6 283.5L207.1 248.5Z" fill="#7fccda" stroke="#FFFFFF"></path><path d="M188.1 110.2L251.6 137.3L257.6 96.2Z" fill="#84c2e6" stroke="#FFFFFF"></path><path d="M416.2 0L359.7 0L411.2 38.1Z" fill="#9fd4bf" stroke="#FFFFFF"></path><path d="M295.2 61.1L241.6 60.1L257.6 96.2Z" fill="#7ec9df" stroke="#FFFFFF"></path><path d="M203.1 452.8L247.6 488.9L242.6 449.8Z" fill="#7fccda" stroke="#FFFFFF"></path><path d="M242.6 449.8L247.6 488.9L305.2 491.9Z" fill="#87d0cf" stroke="#FFFFFF"></path><path d="M802.4 256.5L767.9 188.4L746.9 256.5Z" fill="#87d0cf" stroke="#FFFFFF"></path><path d="M755.9 433.8L756.9 403.7L709.4 430.8Z" fill="#a8d5ba" stroke="#FFFFFF"></path><path d="M709.4 430.8L756.9 403.7L696.4 390.7Z" fill="#80c6e3" stroke="#FFFFFF"></path><path d="M745.9 354.6L801.4 306.5L760.9 297.5Z" fill="#8bbee8" stroke="#FFFFFF"></path><path d="M760.9 297.5L802.4 256.5L746.9 256.5Z" fill="#7fccda" stroke="#FFFFFF"></path><path d="M247.6 488.9L300.2 540L305.2 491.9Z" fill="#7fccda" stroke="#FFFFFF"></path><path d="M156.6 234.5L207.1 248.5L160.6 198.4Z" fill="#8ed2ca" stroke="#FFFFFF"></path><path d="M189.1 293.5L137.6 346.6L214.1 337.6Z" fill="#7ec9df" stroke="#FFFFFF"></path><path d="M594.3 540L647.8 540L597.3 492.9Z" fill="#82ced5" stroke="#FFFFFF"></path><path d="M659.8 496.9L718.4 478.9L642.8 454.8Z" fill="#7fccda" stroke="#FFFFFF"></path><path d="M766.9 85.2L700.4 84.2L746.9 155.3Z" fill="#87d0cf" stroke="#FFFFFF"></path><path d="M761.9 58.1L696.4 59.1L700.4 84.2Z" fill="#80c6e3" stroke="#FFFFFF"></path><path d="M700.4 84.2L696.4 59.1L664.8 56.1Z" fill="#a8d5ba" stroke="#FFFFFF"></path><path d="M664.8 56.1L618.3 0L606.3 56.1Z" fill="#7ec9df" stroke="#FFFFFF"></path><path d="M707.4 540L718.4 478.9L659.8 496.9Z" fill="#9fd4bf" stroke="#FFFFFF"></path><path d="M666.8 0L618.3 0L664.8 56.1Z" fill="#7fccda" stroke="#FFFFFF"></path><path d="M160.6 198.4L207.1 248.5L210.1 191.4Z" fill="#8bbee8" stroke="#FFFFFF"></path><path d="M191.1 380.7L203.1 452.8L242.6 449.8Z" fill="#7ec9df" stroke="#FFFFFF"></path><path d="M247.6 488.9L240.6 540L300.2 540Z" fill="#82ced5" stroke="#FFFFFF"></path><path d="M158.6 448.8L203.1 452.8L191.1 380.7Z" fill="#87d0cf" stroke="#FFFFFF"></path><path d="M265.6 0L241.6 60.1L295.2 61.1Z" fill="#8bbee8" stroke="#FFFFFF"></path><path d="M202.1 147.3L160.6 198.4L210.1 191.4Z" fill="#7ec9df" stroke="#FFFFFF"></path><path d="M718.4 478.9L755.9 433.8L709.4 430.8Z" fill="#a8d5ba" stroke="#FFFFFF"></path><path d="M810.4 350.6L801.4 306.5L745.9 354.6Z" fill="#9fd4bf" stroke="#FFFFFF"></path><path d="M158.6 142.3L160.6 198.4L202.1 147.3Z" fill="#82ced5" stroke="#FFFFFF"></path><path d="M359.7 0L306.2 0L347.7 60.1Z" fill="#87d0cf" stroke="#FFFFFF"></path><path d="M810.4 350.6L745.9 354.6L756.9 403.7Z" fill="#96d3c4" stroke="#FFFFFF"></path><path d="M801.4 306.5L802.4 256.5L760.9 297.5Z" fill="#7ec9df" stroke="#FFFFFF"></path><path d="M241.6 60.1L188.1 110.2L257.6 96.2Z" fill="#84c2e6" stroke="#FFFFFF"></path><path d="M109.1 335.6L137.6 346.6L104.1 298.5Z" fill="#9fd4bf" stroke="#FFFFFF"></path><path d="M161.6 283.5L137.6 346.6L189.1 293.5Z" fill="#a8d5ba" stroke="#FFFFFF"></path><path d="M137.6 346.6L161.6 283.5L104.1 298.5Z" fill="#84c2e6" stroke="#FFFFFF"></path><path d="M696.4 59.1L666.8 0L664.8 56.1Z" fill="#7ec9df" stroke="#FFFFFF"></path><path d="M716.4 0L666.8 0L696.4 59.1Z" fill="#8ed2ca" stroke="#FFFFFF"></path><path d="M188.1 110.2L158.6 142.3L202.1 147.3Z" fill="#9fd4bf" stroke="#FFFFFF"></path><path d="M104.1 298.5L161.6 283.5L97.1 234.5Z" fill="#8bbee8" stroke="#FFFFFF"></path><path d="M800.4 405.7L810.4 350.6L756.9 403.7Z" fill="#7ec9df" stroke="#FFFFFF"></path><path d="M849.9 304.5L848.9 245.5L802.4 256.5Z" fill="#8ed2ca" stroke="#FFFFFF"></path><path d="M197.1 494.9L240.6 540L247.6 488.9Z" fill="#82ced5" stroke="#FFFFFF"></path><path d="M197.1 494.9L247.6 488.9L203.1 452.8Z" fill="#8ed2ca" stroke="#FFFFFF"></path><path d="M164.6 496.9L197.1 494.9L203.1 452.8Z" fill="#8bbee8" stroke="#FFFFFF"></path><path d="M306.2 0L265.6 0L295.2 61.1Z" fill="#84c2e6" stroke="#FFFFFF"></path><path d="M241.6 60.1L197.1 46.1L188.1 110.2Z" fill="#a8d5ba" stroke="#FFFFFF"></path><path d="M188.1 110.2L145.6 91.2L158.6 142.3Z" fill="#87d0cf" stroke="#FFFFFF"></path><path d="M647.8 540L707.4 540L659.8 496.9Z" fill="#a8d5ba" stroke="#FFFFFF"></path><path d="M718.4 478.9L764.9 489.9L755.9 433.8Z" fill="#8ed2ca" stroke="#FFFFFF"></path><path d="M755.9 433.8L800.4 405.7L756.9 403.7Z" fill="#82ced5" stroke="#FFFFFF"></path><path d="M801.4 433.8L800.4 405.7L755.9 433.8Z" fill="#87d0cf" stroke="#FFFFFF"></path><path d="M802.4 256.5L814.4 199.4L767.9 188.4Z" fill="#7ec9df" stroke="#FFFFFF"></path><path d="M767.9 188.4L798.4 133.3L746.9 155.3Z" fill="#80c6e3" stroke="#FFFFFF"></path><path d="M848.9 245.5L814.4 199.4L802.4 256.5Z" fill="#8ed2ca" stroke="#FFFFFF"></path><path d="M798.4 133.3L766.9 85.2L746.9 155.3Z" fill="#9fd4bf" stroke="#FFFFFF"></path><path d="M137.6 401.7L158.6 448.8L191.1 380.7Z" fill="#a8d5ba" stroke="#FFFFFF"></path><path d="M137.6 346.6L137.6 401.7L191.1 380.7Z" fill="#84c2e6" stroke="#FFFFFF"></path><path d="M814.4 199.4L798.4 133.3L767.9 188.4Z" fill="#82ced5" stroke="#FFFFFF"></path><path d="M757.9 540L764.9 489.9L718.4 478.9Z" fill="#7fccda" stroke="#FFFFFF"></path><path d="M206.1 0L197.1 46.1L241.6 60.1Z" fill="#8ed2ca" stroke="#FFFFFF"></path><path d="M764.9 489.9L801.4 433.8L755.9 433.8Z" fill="#7fccda" stroke="#FFFFFF"></path><path d="M859.9 351.6L849.9 304.5L810.4 350.6Z" fill="#82ced5" stroke="#FFFFFF"></path><path d="M807.4 62.1L761.9 58.1L766.9 85.2Z" fill="#84c2e6" stroke="#FFFFFF"></path><path d="M766.9 85.2L761.9 58.1L700.4 84.2Z" fill="#a8d5ba" stroke="#FFFFFF"></path><path d="M161.6 283.5L156.6 234.5L97.1 234.5Z" fill="#80c6e3" stroke="#FFFFFF"></path><path d="M137.6 346.6L93.1 381.7L137.6 401.7Z" fill="#a8d5ba" stroke="#FFFFFF"></path><path d="M97.1 234.5L156.6 234.5L160.6 198.4Z" fill="#80c6e3" stroke="#FFFFFF"></path><path d="M863.9 102.2L797.4 105.2L798.4 133.3Z" fill="#7ec9df" stroke="#FFFFFF"></path><path d="M798.4 133.3L797.4 105.2L766.9 85.2Z" fill="#96d3c4" stroke="#FFFFFF"></path><path d="M761.9 58.1L716.4 0L696.4 59.1Z" fill="#84c2e6" stroke="#FFFFFF"></path><path d="M98.1 428.8L158.6 448.8L137.6 401.7Z" fill="#80c6e3" stroke="#FFFFFF"></path><path d="M103.1 490.9L164.6 496.9L158.6 448.8Z" fill="#96d3c4" stroke="#FFFFFF"></path><path d="M158.6 448.8L164.6 496.9L203.1 452.8Z" fill="#a8d5ba" stroke="#FFFFFF"></path><path d="M197.1 494.9L192.1 540L240.6 540Z" fill="#84c2e6" stroke="#FFFFFF"></path><path d="M849.9 304.5L802.4 256.5L801.4 306.5Z" fill="#82ced5" stroke="#FFFFFF"></path><path d="M814.4 199.4L859.9 148.3L798.4 133.3Z" fill="#7ec9df" stroke="#FFFFFF"></path><path d="M849.9 304.5L801.4 306.5L810.4 350.6Z" fill="#9fd4bf" stroke="#FFFFFF"></path><path d="M859.9 351.6L810.4 350.6L855.9 403.7Z" fill="#80c6e3" stroke="#FFFFFF"></path><path d="M157.6 55.1L145.6 91.2L188.1 110.2Z" fill="#8ed2ca" stroke="#FFFFFF"></path><path d="M88.1 182.4L97.1 234.5L160.6 198.4Z" fill="#96d3c4" stroke="#FFFFFF"></path><path d="M88.1 182.4L160.6 198.4L96.1 146.3Z" fill="#7fccda" stroke="#FFFFFF"></path><path d="M164.6 496.9L192.1 540L197.1 494.9Z" fill="#9fd4bf" stroke="#FFFFFF"></path><path d="M764.9 489.9L818.4 476.9L801.4 433.8Z" fill="#9fd4bf" stroke="#FFFFFF"></path><path d="M707.4 540L757.9 540L718.4 478.9Z" fill="#8ed2ca" stroke="#FFFFFF"></path><path d="M265.6 0L206.1 0L241.6 60.1Z" fill="#9fd4bf" stroke="#FFFFFF"></path><path d="M197.1 46.1L157.6 55.1L188.1 110.2Z" fill="#8ed2ca" stroke="#FFFFFF"></path><path d="M151.6 0L157.6 55.1L197.1 46.1Z" fill="#8bbee8" stroke="#FFFFFF"></path><path d="M96.1 146.3L160.6 198.4L158.6 142.3Z" fill="#87d0cf" stroke="#FFFFFF"></path><path d="M761.9 58.1L746.9 0L716.4 0Z" fill="#7fccda" stroke="#FFFFFF"></path><path d="M812.4 0L746.9 0L761.9 58.1Z" fill="#96d3c4" stroke="#FFFFFF"></path><path d="M56.5 333.6L93.1 381.7L109.1 335.6Z" fill="#a8d5ba" stroke="#FFFFFF"></path><path d="M109.1 335.6L93.1 381.7L137.6 346.6Z" fill="#87d0cf" stroke="#FFFFFF"></path><path d="M56.5 333.6L109.1 335.6L104.1 298.5Z" fill="#a8d5ba" stroke="#FFFFFF"></path><path d="M855.9 403.7L810.4 350.6L800.4 405.7Z" fill="#7ec9df" stroke="#FFFFFF"></path><path d="M849.9 304.5L899.5 246.5L848.9 245.5Z" fill="#8bbee8" stroke="#FFFFFF"></path><path d="M855.9 403.7L800.4 405.7L801.4 433.8Z" fill="#8bbee8" stroke="#FFFFFF"></path><path d="M899.5 246.5L857.9 187.4L848.9 245.5Z" fill="#80c6e3" stroke="#FFFFFF"></path><path d="M848.9 245.5L857.9 187.4L814.4 199.4Z" fill="#87d0cf" stroke="#FFFFFF"></path><path d="M797.4 105.2L807.4 62.1L766.9 85.2Z" fill="#80c6e3" stroke="#FFFFFF"></path><path d="M96.1 146.3L158.6 142.3L112.1 91.2Z" fill="#80c6e3" stroke="#FFFFFF"></path><path d="M97.1 234.5L44.5 283.5L104.1 298.5Z" fill="#7fccda" stroke="#FFFFFF"></path><path d="M807.4 540L818.4 476.9L764.9 489.9Z" fill="#80c6e3" stroke="#FFFFFF"></path><path d="M863.9 102.2L807.4 62.1L797.4 105.2Z" fill="#a8d5ba" stroke="#FFFFFF"></path><path d="M112.1 91.2L158.6 142.3L145.6 91.2Z" fill="#8bbee8" stroke="#FFFFFF"></path><path d="M867.9 430.8L855.9 403.7L801.4 433.8Z" fill="#96d3c4" stroke="#FFFFFF"></path><path d="M93.1 381.7L98.1 428.8L137.6 401.7Z" fill="#7ec9df" stroke="#FFFFFF"></path><path d="M164.6 496.9L145.6 540L192.1 540Z" fill="#9fd4bf" stroke="#FFFFFF"></path><path d="M103.1 56.1L145.6 91.2L157.6 55.1Z" fill="#a8d5ba" stroke="#FFFFFF"></path><path d="M103.1 56.1L112.1 91.2L145.6 91.2Z" fill="#7fccda" stroke="#FFFFFF"></path><path d="M857.9 187.4L859.9 148.3L814.4 199.4Z" fill="#8bbee8" stroke="#FFFFFF"></path><path d="M911.5 186.4L859.9 148.3L857.9 187.4Z" fill="#8ed2ca" stroke="#FFFFFF"></path><path d="M62.5 197.4L97.1 234.5L88.1 182.4Z" fill="#8bbee8" stroke="#FFFFFF"></path><path d="M62.5 197.4L60.5 233.5L97.1 234.5Z" fill="#84c2e6" stroke="#FFFFFF"></path><path d="M93.1 381.7L54.5 390.7L98.1 428.8Z" fill="#82ced5" stroke="#FFFFFF"></path><path d="M62.5 197.4L88.1 182.4L48.5 159.3Z" fill="#7fccda" stroke="#FFFFFF"></path><path d="M103.1 490.9L145.6 540L164.6 496.9Z" fill="#7fccda" stroke="#FFFFFF"></path><path d="M48.5 159.3L88.1 182.4L96.1 146.3Z" fill="#87d0cf" stroke="#FFFFFF"></path><path d="M44.5 283.5L56.5 333.6L104.1 298.5Z" fill="#80c6e3" stroke="#FFFFFF"></path><path d="M98.1 428.8L103.1 490.9L158.6 448.8Z" fill="#8ed2ca" stroke="#FFFFFF"></path><path d="M807.4 540L845.9 476.9L818.4 476.9Z" fill="#7fccda" stroke="#FFFFFF"></path><path d="M818.4 476.9L845.9 476.9L801.4 433.8Z" fill="#a8d5ba" stroke="#FFFFFF"></path><path d="M845.9 476.9L867.9 430.8L801.4 433.8Z" fill="#7ec9df" stroke="#FFFFFF"></path><path d="M855.9 403.7L902.5 353.6L859.9 351.6Z" fill="#80c6e3" stroke="#FFFFFF"></path><path d="M918.5 286.5L899.5 246.5L849.9 304.5Z" fill="#9fd4bf" stroke="#FFFFFF"></path><path d="M757.9 540L807.4 540L764.9 489.9Z" fill="#87d0cf" stroke="#FFFFFF"></path><path d="M61.5 450.8L103.1 490.9L98.1 428.8Z" fill="#8ed2ca" stroke="#FFFFFF"></path><path d="M206.1 0L151.6 0L197.1 46.1Z" fill="#84c2e6" stroke="#FFFFFF"></path><path d="M57.5 106.2L48.5 159.3L96.1 146.3Z" fill="#9fd4bf" stroke="#FFFFFF"></path><path d="M902.5 353.6L849.9 304.5L859.9 351.6Z" fill="#82ced5" stroke="#FFFFFF"></path><path d="M60.5 233.5L44.5 283.5L97.1 234.5Z" fill="#80c6e3" stroke="#FFFFFF"></path><path d="M0 281.5L44.5 283.5L0 245.5Z" fill="#7fccda" stroke="#FFFFFF"></path><path d="M904.5 108.2L863.9 102.2L859.9 148.3Z" fill="#8ed2ca" stroke="#FFFFFF"></path><path d="M859.9 148.3L863.9 102.2L798.4 133.3Z" fill="#9fd4bf" stroke="#FFFFFF"></path><path d="M807.4 62.1L812.4 0L761.9 58.1Z" fill="#a8d5ba" stroke="#FFFFFF"></path><path d="M0 333.6L54.5 390.7L56.5 333.6Z" fill="#8ed2ca" stroke="#FFFFFF"></path><path d="M56.5 333.6L54.5 390.7L93.1 381.7Z" fill="#9fd4bf" stroke="#FFFFFF"></path><path d="M151.6 0L103.1 56.1L157.6 55.1Z" fill="#84c2e6" stroke="#FFFFFF"></path><path d="M916.5 383.7L902.5 353.6L855.9 403.7Z" fill="#96d3c4" stroke="#FFFFFF"></path><path d="M861.9 43.1L812.4 0L807.4 62.1Z" fill="#8ed2ca" stroke="#FFFFFF"></path><path d="M57.5 106.2L96.1 146.3L112.1 91.2Z" fill="#a8d5ba" stroke="#FFFFFF"></path><path d="M0 245.5L44.5 283.5L60.5 233.5Z" fill="#7ec9df" stroke="#FFFFFF"></path><path d="M54.5 390.7L61.5 450.8L98.1 428.8Z" fill="#87d0cf" stroke="#FFFFFF"></path><path d="M103.1 490.9L102.1 540L145.6 540Z" fill="#8bbee8" stroke="#FFFFFF"></path><path d="M902.5 353.6L918.5 286.5L849.9 304.5Z" fill="#7ec9df" stroke="#FFFFFF"></path><path d="M899.5 246.5L911.5 186.4L857.9 187.4Z" fill="#82ced5" stroke="#FFFFFF"></path><path d="M960 209.4L911.5 186.4L899.5 246.5Z" fill="#9fd4bf" stroke="#FFFFFF"></path><path d="M863.9 102.2L861.9 43.1L807.4 62.1Z" fill="#9fd4bf" stroke="#FFFFFF"></path><path d="M62.5 44.1L57.5 106.2L103.1 56.1Z" fill="#9fd4bf" stroke="#FFFFFF"></path><path d="M103.1 56.1L57.5 106.2L112.1 91.2Z" fill="#87d0cf" stroke="#FFFFFF"></path><path d="M54.5 490.9L102.1 540L103.1 490.9Z" fill="#9fd4bf" stroke="#FFFFFF"></path><path d="M900.5 476.9L901.5 427.8L867.9 430.8Z" fill="#a8d5ba" stroke="#FFFFFF"></path><path d="M867.9 430.8L901.5 427.8L855.9 403.7Z" fill="#9fd4bf" stroke="#FFFFFF"></path><path d="M960 336.6L960 282.5L918.5 286.5Z" fill="#96d3c4" stroke="#FFFFFF"></path><path d="M900.5 476.9L867.9 430.8L845.9 476.9Z" fill="#87d0cf" stroke="#FFFFFF"></path><path d="M901.5 427.8L916.5 383.7L855.9 403.7Z" fill="#8ed2ca" stroke="#FFFFFF"></path><path d="M900.5 47.1L861.9 43.1L863.9 102.2Z" fill="#8bbee8" stroke="#FFFFFF"></path><path d="M960 152.3L910.5 143.3L911.5 186.4Z" fill="#87d0cf" stroke="#FFFFFF"></path><path d="M911.5 186.4L910.5 143.3L859.9 148.3Z" fill="#8ed2ca" stroke="#FFFFFF"></path><path d="M151.6 0L104.1 0L103.1 56.1Z" fill="#9fd4bf" stroke="#FFFFFF"></path><path d="M910.5 143.3L904.5 108.2L859.9 148.3Z" fill="#96d3c4" stroke="#FFFFFF"></path><path d="M895.5 0L845.9 0L861.9 43.1Z" fill="#8bbee8" stroke="#FFFFFF"></path><path d="M861.9 43.1L845.9 0L812.4 0Z" fill="#7fccda" stroke="#FFFFFF"></path><path d="M0 478.9L54.5 490.9L61.5 450.8Z" fill="#a8d5ba" stroke="#FFFFFF"></path><path d="M61.5 450.8L54.5 490.9L103.1 490.9Z" fill="#8ed2ca" stroke="#FFFFFF"></path><path d="M0 400.7L61.5 450.8L54.5 390.7Z" fill="#7fccda" stroke="#FFFFFF"></path><path d="M807.4 540L863.9 540L845.9 476.9Z" fill="#8ed2ca" stroke="#FFFFFF"></path><path d="M960 388.7L960 336.6L916.5 383.7Z" fill="#80c6e3" stroke="#FFFFFF"></path><path d="M863.9 540L900.5 476.9L845.9 476.9Z" fill="#8ed2ca" stroke="#FFFFFF"></path><path d="M0 245.5L60.5 233.5L0 203.4Z" fill="#8ed2ca" stroke="#FFFFFF"></path><path d="M44.5 283.5L0 333.6L56.5 333.6Z" fill="#8bbee8" stroke="#FFFFFF"></path><path d="M60.5 233.5L62.5 197.4L0 203.4Z" fill="#7fccda" stroke="#FFFFFF"></path><path d="M104.1 0L62.5 44.1L103.1 56.1Z" fill="#96d3c4" stroke="#FFFFFF"></path><path d="M0 203.4L62.5 197.4L48.5 159.3Z" fill="#a8d5ba" stroke="#FFFFFF"></path><path d="M0 203.4L48.5 159.3L0 136.3Z" fill="#87d0cf" stroke="#FFFFFF"></path><path d="M0 281.5L0 333.6L44.5 283.5Z" fill="#7ec9df" stroke="#FFFFFF"></path><path d="M0 136.3L48.5 159.3L57.5 106.2Z" fill="#7fccda" stroke="#FFFFFF"></path><path d="M960 336.6L918.5 286.5L902.5 353.6Z" fill="#82ced5" stroke="#FFFFFF"></path><path d="M918.5 286.5L960 233.5L899.5 246.5Z" fill="#80c6e3" stroke="#FFFFFF"></path><path d="M960 89.2L900.5 47.1L904.5 108.2Z" fill="#7fccda" stroke="#FFFFFF"></path><path d="M960 336.6L902.5 353.6L916.5 383.7Z" fill="#8ed2ca" stroke="#FFFFFF"></path><path d="M960 89.2L904.5 108.2L910.5 143.3Z" fill="#80c6e3" stroke="#FFFFFF"></path><path d="M904.5 108.2L900.5 47.1L863.9 102.2Z" fill="#9fd4bf" stroke="#FFFFFF"></path><path d="M0 333.6L0 400.7L54.5 390.7Z" fill="#7fccda" stroke="#FFFFFF"></path><path d="M960 282.5L960 233.5L918.5 286.5Z" fill="#9fd4bf" stroke="#FFFFFF"></path><path d="M960 388.7L916.5 383.7L901.5 427.8Z" fill="#7fccda" stroke="#FFFFFF"></path><path d="M960 233.5L960 209.4L899.5 246.5Z" fill="#7ec9df" stroke="#FFFFFF"></path><path d="M0 106.2L0 136.3L57.5 106.2Z" fill="#a8d5ba" stroke="#FFFFFF"></path><path d="M863.9 540L897.5 540L900.5 476.9Z" fill="#82ced5" stroke="#FFFFFF"></path><path d="M960 446.8L960 388.7L901.5 427.8Z" fill="#96d3c4" stroke="#FFFFFF"></path><path d="M960 446.8L901.5 427.8L900.5 476.9Z" fill="#8ed2ca" stroke="#FFFFFF"></path><path d="M0 400.7L0 446.8L61.5 450.8Z" fill="#80c6e3" stroke="#FFFFFF"></path><path d="M54.5 490.9L43.5 540L102.1 540Z" fill="#9fd4bf" stroke="#FFFFFF"></path><path d="M0 478.9L43.5 540L54.5 490.9Z" fill="#96d3c4" stroke="#FFFFFF"></path><path d="M104.1 0L56.5 0L62.5 44.1Z" fill="#8ed2ca" stroke="#FFFFFF"></path><path d="M0 54.1L0 106.2L57.5 106.2Z" fill="#a8d5ba" stroke="#FFFFFF"></path><path d="M960 209.4L960 152.3L911.5 186.4Z" fill="#96d3c4" stroke="#FFFFFF"></path><path d="M0 54.1L57.5 106.2L62.5 44.1Z" fill="#8ed2ca" stroke="#FFFFFF"></path><path d="M960 0L895.5 0L900.5 47.1Z" fill="#9fd4bf" stroke="#FFFFFF"></path><path d="M900.5 47.1L895.5 0L861.9 43.1Z" fill="#8ed2ca" stroke="#FFFFFF"></path><path d="M0 446.8L0 478.9L61.5 450.8Z" fill="#8ed2ca" stroke="#FFFFFF"></path><path d="M960 477.9L960 446.8L900.5 476.9Z" fill="#96d3c4" stroke="#FFFFFF"></path><path d="M960 152.3L960 89.2L910.5 143.3Z" fill="#84c2e6" stroke="#FFFFFF"></path><path d="M0 0L0 54.1L62.5 44.1Z" fill="#7ec9df" stroke="#FFFFFF"></path><path d="M960 540L960 477.9L900.5 476.9Z" fill="#9fd4bf" stroke="#FFFFFF"></path><path d="M960 89.2L960 55.1L900.5 47.1Z" fill="#8bbee8" stroke="#FFFFFF"></path><path d="M0 478.9L0 540L43.5 540Z" fill="#96d3c4" stroke="#FFFFFF"></path><path d="M56.5 0L0 0L62.5 44.1Z" fill="#8bbee8" stroke="#FFFFFF"></path><path d="M897.5 540L960 540L900.5 476.9Z" fill="#80c6e3" stroke="#FFFFFF"></path><path d="M960 55.1L960 0L900.5 47.1Z" fill="#7fccda" stroke="#FFFFFF"></path></g></svg>